<svg width="44" height="45" viewBox="0 0 44 45" fill="none" xmlns="http://www.w3.org/2000/svg">
<circle cx="22.1162" cy="22.7013" r="21.7676" fill="white"/>
<path d="M15.5294 22.3015L20.5919 17.239C20.6999 17.1358 20.8433 17.0779 20.9927 17.0773C21.0673 17.0776 21.1413 17.0919 21.2106 17.1194C21.313 17.1625 21.4004 17.2348 21.4617 17.3274C21.523 17.42 21.5555 17.5287 21.5552 17.6398L21.5552 22.1398L28.3052 22.1398C28.4544 22.1398 28.5974 22.199 28.7029 22.3045C28.8084 22.41 28.8677 22.5531 28.8677 22.7023C28.8677 22.8514 28.8084 22.9945 28.7029 23.1C28.5974 23.2055 28.4544 23.2648 28.3052 23.2648L21.5552 23.2648L21.5552 27.7648C21.5555 27.8758 21.523 27.9845 21.4617 28.0771C21.4004 28.1697 21.313 28.242 21.2106 28.2851C21.1067 28.3256 20.9935 28.3359 20.884 28.3147C20.7745 28.2936 20.6732 28.2418 20.5919 28.1655L15.5294 23.103C15.4238 22.9964 15.3645 22.8524 15.3645 22.7023C15.3645 22.5522 15.4238 22.4081 15.5294 22.3015Z" fill="#211932"/>
</svg>
