<svg width="44" height="44" viewBox="0 0 44 44" fill="none" xmlns="http://www.w3.org/2000/svg">
<circle cx="22.0747" cy="21.7671" r="21.7676" fill="#AB5429"/>
<path d="M28.6615 22.167L23.599 27.2295C23.491 27.3327 23.3476 27.3906 23.1982 27.3913C23.1236 27.3909 23.0497 27.3766 22.9803 27.3491C22.8779 27.306 22.7906 27.2337 22.7292 27.1411C22.6679 27.0485 22.6354 26.9398 22.6357 26.8288V22.3288H15.8857C15.7366 22.3288 15.5935 22.2695 15.488 22.164C15.3825 22.0585 15.3232 21.9154 15.3232 21.7663C15.3232 21.6171 15.3825 21.474 15.488 21.3685C15.5935 21.263 15.7366 21.2038 15.8857 21.2038H22.6357V16.7038C22.6354 16.5927 22.6679 16.484 22.7292 16.3914C22.7906 16.2988 22.8779 16.2265 22.9803 16.1834C23.0842 16.1429 23.1974 16.1326 23.3069 16.1538C23.4164 16.1749 23.5177 16.2267 23.599 16.303L28.6615 21.3655C28.7671 21.4721 28.8264 21.6162 28.8264 21.7663C28.8264 21.9164 28.7671 22.0604 28.6615 22.167Z" fill="white"/>
</svg>
