<svg width="31" height="29" viewBox="0 0 31 29" fill="none" xmlns="http://www.w3.org/2000/svg">
<path d="M27.2706 21.4967C28.8036 21.4967 30.0463 20.254 30.0463 18.721V2.82192C30.0463 1.2889 28.8036 0.0461448 27.2706 0.0461447L3.0829 0.0461426C1.54989 0.0461424 0.307132 1.28889 0.30713 2.82191L0.307129 18.721C0.307129 20.254 1.54988 21.4967 3.0829 21.4967H14.4089C14.4125 21.5005 14.4161 21.5042 14.4198 21.5078L21.5918 28.6798C22.1746 29.2627 23.1713 28.8499 23.1713 28.0255V21.4967H27.2706Z" fill="#FFCC4A"/>
<rect x="7.87646" y="13.6794" width="13.8699" height="1.55035" rx="0.775175" fill="#1B1B1B"/>
<rect x="7.87646" y="9.6853" width="13.8699" height="1.55035" rx="0.775175" fill="#1B1B1B"/>
<rect x="7.87646" y="6.10474" width="13.8699" height="1.55035" rx="0.775175" fill="#1B1B1B"/>
</svg>
