<svg width="19" height="18" viewBox="0 0 19 18" fill="none" xmlns="http://www.w3.org/2000/svg">
<path d="M12.8304 1.74661C13.8221 1.74946 14.7724 2.12984 15.4737 2.80468C16.175 3.47952 16.5703 4.39397 16.5733 5.34833V12.551C16.5703 13.5054 16.175 14.4198 15.4737 15.0947C14.7724 15.7695 13.8221 16.1499 12.8304 16.1527H5.34532C4.35355 16.1499 3.40324 15.7695 2.70195 15.0947C2.00065 14.4198 1.60536 13.5054 1.6024 12.551V5.34833C1.60536 4.39397 2.00065 3.47952 2.70195 2.80468C3.40324 2.12984 4.35355 1.74946 5.34532 1.74661H12.8304ZM12.8304 0.306152H5.34532C2.46334 0.306152 0.105469 2.57508 0.105469 5.34833V12.551C0.105469 15.3243 2.46334 17.5932 5.34532 17.5932H12.8304C15.7123 17.5932 18.0702 15.3243 18.0702 12.551V5.34833C18.0702 2.57508 15.7123 0.306152 12.8304 0.306152Z" fill="white"/>
<path d="M13.9532 5.34862C13.7311 5.34862 13.514 5.28526 13.3294 5.16654C13.1448 5.04782 13.0008 4.87907 12.9159 4.68165C12.8309 4.48423 12.8086 4.26699 12.852 4.0574C12.8953 3.84782 13.0022 3.6553 13.1592 3.5042C13.3163 3.3531 13.5163 3.25019 13.7341 3.2085C13.9519 3.16682 14.1777 3.18821 14.3829 3.26999C14.588 3.35176 14.7634 3.49025 14.8868 3.66792C15.0101 3.8456 15.076 4.05449 15.076 4.26818C15.0763 4.41016 15.0475 4.55079 14.9912 4.68201C14.9348 4.81323 14.8522 4.93246 14.7478 5.03285C14.6435 5.13324 14.5196 5.21281 14.3832 5.267C14.2469 5.32119 14.1007 5.34893 13.9532 5.34862ZM9.08787 6.06866C9.68008 6.06866 10.259 6.23764 10.7514 6.55425C11.2438 6.87085 11.6276 7.32085 11.8542 7.84733C12.0808 8.37382 12.1401 8.95316 12.0246 9.51207C11.9091 10.071 11.6239 10.5844 11.2051 10.9873C10.7864 11.3903 10.2528 11.6647 9.67202 11.7759C9.09119 11.8871 8.48914 11.83 7.94202 11.6119C7.39489 11.3939 6.92725 11.0246 6.59823 10.5507C6.26922 10.0769 6.09361 9.51983 6.09361 8.94996C6.09446 8.18604 6.4102 7.45365 6.97155 6.91348C7.53289 6.3733 8.294 6.06948 9.08787 6.06866ZM9.08787 4.6282C8.1996 4.6282 7.33127 4.88167 6.5927 5.35655C5.85413 5.83143 5.27848 6.5064 4.93855 7.29609C4.59863 8.08579 4.50969 8.95475 4.68298 9.79309C4.85627 10.6314 5.28402 11.4015 5.91212 12.0059C6.54022 12.6103 7.34048 13.0219 8.21168 13.1887C9.08289 13.3554 9.98591 13.2698 10.8066 12.9427C11.6272 12.6156 12.3287 12.0617 12.8222 11.351C13.3157 10.6403 13.5791 9.80472 13.5791 8.94996C13.5791 7.80376 13.1059 6.7045 12.2636 5.89402C11.4214 5.08353 10.279 4.6282 9.08787 4.6282Z" fill="white"/>
</svg>
