<svg width="19" height="18" viewBox="0 0 19 18" fill="none" xmlns="http://www.w3.org/2000/svg">
<path d="M17.114 0.172363H2.46335C1.66282 0.172363 0.963379 0.748372 0.963379 1.5395V16.2226C0.963379 17.0181 1.66282 17.7269 2.46335 17.7269H17.1096C17.9145 17.7269 18.5179 17.0134 18.5179 16.2226V1.5395C18.5226 0.748372 17.9145 0.172363 17.114 0.172363ZM6.4049 14.8049H3.89005V6.98572H6.4049V14.8049ZM5.23446 5.79687H5.21644C4.41159 5.79687 3.89044 5.19775 3.89044 4.44776C3.89044 3.68406 4.42531 3.09904 5.24818 3.09904C6.07105 3.09904 6.57457 3.67975 6.59259 4.44776C6.5922 5.19775 6.07105 5.79687 5.23446 5.79687ZM15.596 14.8049H13.0811V10.5296C13.0811 9.50527 12.7151 8.80544 11.8053 8.80544C11.1101 8.80544 10.6987 9.27565 10.5157 9.73372C10.4471 9.89829 10.4287 10.1224 10.4287 10.3513V14.8049H7.91389V6.98572H10.4287V8.07387C10.7947 7.55272 11.3664 6.80273 12.6967 6.80273C14.3476 6.80273 15.5964 7.89088 15.5964 10.2368L15.596 14.8049Z" fill="white"/>
</svg>
