<svg width="18" height="14" viewBox="0 0 18 14" fill="none" xmlns="http://www.w3.org/2000/svg">
<path d="M17.9633 1.66423C17.3132 1.94648 16.6254 2.13243 15.9216 2.21621C16.6613 1.78342 17.2175 1.09585 17.486 0.282467C16.7867 0.691076 16.0229 0.977774 15.2274 1.13028C14.8924 0.779443 14.4895 0.50034 14.0432 0.309939C13.5969 0.119537 13.1165 0.0218149 12.6312 0.0227112C10.6665 0.0227112 9.07649 1.58846 9.07649 3.5186C9.0751 3.78707 9.10589 4.05475 9.16819 4.31591C7.75934 4.24991 6.37978 3.89077 5.11778 3.26146C3.85579 2.63215 2.73913 1.74654 1.83927 0.661279C1.52358 1.1931 1.35662 1.79989 1.35585 2.41824C1.35585 3.63044 1.98874 4.70193 2.94439 5.32968C2.37819 5.31625 1.8236 5.1665 1.32769 4.89314V4.93644C1.32769 6.63207 2.55519 8.04269 4.17983 8.36378C3.87432 8.44516 3.5595 8.4864 3.24332 8.48644C3.01897 8.48683 2.79512 8.46508 2.57505 8.4215C3.0267 9.81047 4.34121 10.8206 5.89834 10.8495C4.63306 11.8239 3.07963 12.3506 1.48221 12.3467C1.19866 12.3463 0.915381 12.3294 0.633789 12.2962C2.25885 13.3331 4.14786 13.8816 6.07597 13.8764C12.6236 13.8764 16.2007 8.54777 16.2007 3.92627C16.2007 3.77475 16.1967 3.62322 16.1895 3.47531C16.8838 2.98179 17.4845 2.3685 17.9633 1.66423Z" fill="white"/>
</svg>
