<svg width="59" height="58" viewBox="0 0 59 58" fill="none" xmlns="http://www.w3.org/2000/svg">
<circle cx="29.5592" cy="28.9117" r="28.9117" fill="#99471E"/>
<path d="M17.5923 24.3652H27.0355" stroke="white" stroke-width="1.5" stroke-linecap="round" stroke-linejoin="round"/>
<path d="M32.1865 24.3652H41.6297" stroke="white" stroke-width="1.5" stroke-linecap="round" stroke-linejoin="round"/>
<path d="M29.6106 26.9409C31.0329 26.9409 32.186 25.7878 32.186 24.3655C32.186 22.9431 31.0329 21.79 29.6106 21.79C28.1882 21.79 27.0352 22.9431 27.0352 24.3655C27.0352 25.7878 28.1882 26.9409 29.6106 26.9409Z" stroke="white" stroke-width="1.5" stroke-linecap="round" stroke-linejoin="round"/>
<path d="M20.1677 37.2426C21.5901 37.2426 22.7431 36.0896 22.7431 34.6672C22.7431 33.2448 21.5901 32.0918 20.1677 32.0918C18.7453 32.0918 17.5923 33.2448 17.5923 34.6672C17.5923 36.0896 18.7453 37.2426 20.1677 37.2426Z" stroke="white" stroke-width="1.5" stroke-linecap="round" stroke-linejoin="round"/>
<path d="M39.0539 37.2426C40.4763 37.2426 41.6293 36.0896 41.6293 34.6672C41.6293 33.2448 40.4763 32.0918 39.0539 32.0918C37.6316 32.0918 36.4785 33.2448 36.4785 34.6672C36.4785 36.0896 37.6316 37.2426 39.0539 37.2426Z" stroke="white" stroke-width="1.5" stroke-linecap="round" stroke-linejoin="round"/>
<path d="M32.165 24.7197C33.8646 25.1969 35.3966 26.1403 36.5876 27.4432C37.7786 28.7461 38.581 30.3564 38.904 32.0918" stroke="white" stroke-width="1.5" stroke-linecap="round" stroke-linejoin="round"/>
<path d="M20.3179 32.0918C20.6409 30.3564 21.4433 28.7461 22.6343 27.4432C23.8253 26.1403 25.3573 25.1969 27.0569 24.7197" stroke="white" stroke-width="1.5" stroke-linecap="round" stroke-linejoin="round"/>
</svg>
