<svg width="59" height="59" viewBox="0 0 59 59" fill="none" xmlns="http://www.w3.org/2000/svg">
<circle cx="29.5592" cy="29.7352" r="28.9117" fill="#99471E"/>
<path d="M32.397 27.1907H35.8038" stroke="white" stroke-width="1.5" stroke-linecap="round" stroke-linejoin="round"/>
<path d="M23.8799 27.1907H27.2867" stroke="white" stroke-width="1.5" stroke-linecap="round" stroke-linejoin="round"/>
<path d="M25.583 25.4875V28.8943" stroke="white" stroke-width="1.5" stroke-linecap="round" stroke-linejoin="round"/>
<path d="M34.5263 21.6233L25.1577 21.6552C23.8564 21.6577 22.5975 22.1176 21.6011 22.9545C20.6046 23.7913 19.9341 24.9519 19.7068 26.2331V26.2331L17.9609 35.1866C17.8488 35.8118 17.9393 36.4565 18.2193 37.0267C18.4993 37.5968 18.9541 38.0627 19.5175 38.3562C20.0808 38.6497 20.7231 38.7557 21.3509 38.6585C21.9786 38.5614 22.5589 38.2662 23.0072 37.8162V37.8162L27.6063 32.7273L34.5263 32.6953C35.9946 32.6953 37.4027 32.1121 38.4409 31.0739C39.4791 30.0357 40.0624 28.6276 40.0624 27.1593C40.0624 25.6911 39.4791 24.283 38.4409 23.2448C37.4027 22.2065 35.9946 21.6233 34.5263 21.6233V21.6233Z" stroke="white" stroke-width="1.5" stroke-linecap="round" stroke-linejoin="round"/>
<path d="M39.9771 26.2004L41.7231 35.1858C41.8352 35.8111 41.7446 36.4558 41.4646 37.0259C41.1846 37.5961 40.7298 38.0619 40.1665 38.3555C39.6032 38.649 38.9608 38.7549 38.3331 38.6578C37.7053 38.5607 37.125 38.2655 36.6768 37.8154V37.8154L32.0776 32.7053" stroke="white" stroke-width="1.5" stroke-linecap="round" stroke-linejoin="round"/>
</svg>
