<svg width="59" height="59" viewBox="0 0 59 59" fill="none" xmlns="http://www.w3.org/2000/svg">
<circle cx="29.567" cy="29.7352" r="28.9117" fill="#99471E"/>
<path d="M41.7024 36.6081V24.1814C41.7014 24.0019 41.6531 23.8258 41.5624 23.671C41.4717 23.5161 41.3417 23.3878 41.1856 23.2992L30.0949 17.0607C29.9455 16.9744 29.7759 16.929 29.6034 16.929C29.4308 16.929 29.2613 16.9744 29.1119 17.0607L18.0211 23.2992C17.865 23.3878 17.7351 23.5161 17.6444 23.671C17.5536 23.8258 17.5054 24.0019 17.5044 24.1814V36.6081C17.5054 36.7876 17.5536 36.9636 17.6444 37.1185C17.7351 37.2734 17.865 37.4016 18.0211 37.4903L29.1119 43.7288C29.2613 43.8151 29.4308 43.8605 29.6034 43.8605C29.7759 43.8605 29.9455 43.8151 30.0949 43.7288L41.1856 37.4903C41.3417 37.4016 41.4717 37.2734 41.5624 37.1185C41.6531 36.9636 41.7014 36.7876 41.7024 36.6081V36.6081Z" stroke="white" stroke-width="1.5" stroke-linecap="round" stroke-linejoin="round"/>
<path d="M41.5638 23.6643L29.7168 30.3944L17.6431 23.6643" stroke="white" stroke-width="1.5" stroke-linecap="round" stroke-linejoin="round"/>
<path d="M29.7165 30.3948L29.603 43.8549" stroke="white" stroke-width="1.5" stroke-linecap="round" stroke-linejoin="round"/>
<path d="M35.7788 20.2493L29.6033 23.7277L23.4277 20.2493" stroke="white" stroke-width="1.5" stroke-linecap="round" stroke-linejoin="round"/>
<path d="M35.6528 40.6033V33.6589L41.7023 30.2561" stroke="white" stroke-width="1.5" stroke-linecap="round" stroke-linejoin="round"/>
<path d="M23.5539 40.6033V33.6589L17.5044 30.2561" stroke="white" stroke-width="1.5" stroke-linecap="round" stroke-linejoin="round"/>
</svg>
