<svg width="59" height="58" viewBox="0 0 59 58" fill="none" xmlns="http://www.w3.org/2000/svg">
<circle cx="29.5748" cy="28.9117" r="28.9117" fill="#99471E"/>
<path d="M40.968 39.7791H18.6494" stroke="white" stroke-width="1.5" stroke-linecap="round" stroke-linejoin="round"/>
<path d="M31.8379 22.533V34.7067C31.8379 35.267 32.2921 35.7212 32.8524 35.7212H37.9248C38.4851 35.7212 38.9392 35.267 38.9392 34.7067V22.533C38.9392 21.9727 38.4851 21.5185 37.9248 21.5185H32.8524C32.2921 21.5185 31.8379 21.9727 31.8379 22.533Z" stroke="white" stroke-width="1.5" stroke-linecap="round" stroke-linejoin="round"/>
<path d="M26.7656 16.446H21.6932C21.1329 16.446 20.6787 16.9002 20.6787 17.4605V34.7067C20.6787 35.267 21.1329 35.7212 21.6932 35.7212H26.7656C27.3259 35.7212 27.7801 35.267 27.7801 34.7067V17.4605C27.7801 16.9002 27.3259 16.446 26.7656 16.446Z" stroke="white" stroke-width="1.5" stroke-linecap="round" stroke-linejoin="round"/>
</svg>
