<svg width="18" height="18" viewBox="0 0 18 18" fill="none" xmlns="http://www.w3.org/2000/svg">
<path d="M12.7674 1.7969C13.7592 1.79975 14.7095 2.18013 15.4108 2.85497C16.112 3.52981 16.5073 4.44427 16.5103 5.39862V12.6013C16.5073 13.5557 16.112 14.4701 15.4108 15.145C14.7095 15.8198 13.7592 16.2002 12.7674 16.203H5.28233C4.29056 16.2002 3.34025 15.8198 2.63896 15.145C1.93766 14.4701 1.54237 13.5557 1.53941 12.6013V5.39862C1.54237 4.44427 1.93766 3.52981 2.63896 2.85497C3.34025 2.18013 4.29056 1.79975 5.28233 1.7969H12.7674ZM12.7674 0.356445H5.28233C2.40035 0.356445 0.0424805 2.62537 0.0424805 5.39862V12.6013C0.0424805 15.3746 2.40035 17.6435 5.28233 17.6435H12.7674C15.6494 17.6435 18.0072 15.3746 18.0072 12.6013V5.39862C18.0072 2.62537 15.6494 0.356445 12.7674 0.356445Z" fill="#AB5429"/>
<path d="M13.8902 5.39916C13.6681 5.39916 13.451 5.33579 13.2664 5.21707C13.0818 5.09835 12.9379 4.92961 12.8529 4.73219C12.7679 4.53476 12.7457 4.31752 12.789 4.10794C12.8323 3.89835 12.9392 3.70584 13.0963 3.55474C13.2533 3.40363 13.4534 3.30073 13.6712 3.25904C13.889 3.21735 14.1147 3.23875 14.3199 3.32053C14.525 3.4023 14.7004 3.54078 14.8238 3.71846C14.9471 3.89614 15.013 4.10503 15.013 4.31872C15.0133 4.46069 14.9845 4.60133 14.9282 4.73255C14.8719 4.86377 14.7892 4.983 14.6848 5.08339C14.5805 5.18378 14.4566 5.26335 14.3202 5.31754C14.1839 5.37173 14.0377 5.39947 13.8902 5.39916ZM9.02488 6.1192C9.61709 6.1192 10.196 6.28818 10.6884 6.60478C11.1808 6.92138 11.5646 7.37138 11.7912 7.89787C12.0178 8.42436 12.0771 9.00369 11.9616 9.56261C11.8461 10.1215 11.5609 10.6349 11.1421 11.0379C10.7234 11.4408 10.1899 11.7153 9.60903 11.8264C9.0282 11.9376 8.42616 11.8806 7.87903 11.6625C7.3319 11.4444 6.86426 11.0751 6.53525 10.6013C6.20623 10.1274 6.03062 9.57036 6.03062 9.0005C6.03147 8.23658 6.34721 7.50418 6.90856 6.96401C7.46991 6.42384 8.23101 6.12001 9.02488 6.1192ZM9.02488 4.67874C8.13661 4.67874 7.26828 4.93221 6.52971 5.40709C5.79114 5.88197 5.21549 6.55693 4.87556 7.34663C4.53564 8.13633 4.4467 9.00529 4.61999 9.84363C4.79328 10.682 5.22103 11.452 5.84913 12.0564C6.47724 12.6608 7.27749 13.0725 8.14869 13.2392C9.0199 13.406 9.92293 13.3204 10.7436 12.9933C11.5642 12.6662 12.2657 12.1122 12.7592 11.4015C13.2527 10.6908 13.5161 9.85526 13.5161 9.0005C13.5161 7.8543 13.0429 6.75504 12.2006 5.94455C11.3584 5.13407 10.216 4.67874 9.02488 4.67874Z" fill="#AB5429"/>
</svg>
