<svg width="19" height="18" viewBox="0 0 19 18" fill="none" xmlns="http://www.w3.org/2000/svg">
<path d="M17.051 0.222656H2.40036C1.59983 0.222656 0.900391 0.798665 0.900391 1.5898V16.2729C0.900391 17.0684 1.59983 17.7772 2.40036 17.7772H17.0467C17.8515 17.7772 18.4549 17.0637 18.4549 16.2729V1.5898C18.4596 0.798665 17.8515 0.222656 17.051 0.222656ZM6.34191 14.8552H3.82706V7.03602H6.34191V14.8552ZM5.17148 5.84717H5.15345C4.34861 5.84717 3.82746 5.24804 3.82746 4.49805C3.82746 3.73435 4.36232 3.14933 5.18519 3.14933C6.00806 3.14933 6.51158 3.73004 6.5296 4.49805C6.52921 5.24804 6.00806 5.84717 5.17148 5.84717ZM15.533 14.8552H13.0181V10.5798C13.0181 9.55557 12.6521 8.85574 11.7423 8.85574C11.0472 8.85574 10.6357 9.32595 10.4527 9.78401C10.3842 9.94858 10.3657 10.1727 10.3657 10.4016V14.8552H7.8509V7.03602H10.3657V8.12416C10.7317 7.60301 11.3034 6.85303 12.6337 6.85303C14.2846 6.85303 15.5334 7.94117 15.5334 10.2871L15.533 14.8552Z" fill="#AB5429"/>
</svg>
