<svg width="18" height="14" viewBox="0 0 18 14" fill="none" xmlns="http://www.w3.org/2000/svg">
<path d="M17.9003 1.71476C17.2502 1.99702 16.5624 2.18297 15.8586 2.26675C16.5983 1.83396 17.1545 1.14639 17.423 0.333005C16.7237 0.741613 15.9599 1.02831 15.1644 1.18082C14.8294 0.82998 14.4265 0.550877 13.9802 0.360476C13.5339 0.170074 13.0535 0.072352 12.5682 0.0732483C10.6035 0.0732483 9.0135 1.639 9.0135 3.56914C9.01211 3.83761 9.0429 4.10529 9.10521 4.36644C7.69635 4.30044 6.31679 3.9413 5.0548 3.312C3.7928 2.68269 2.67615 1.79708 1.77628 0.711816C1.46059 1.24364 1.29363 1.85043 1.29286 2.46878C1.29286 3.68098 1.92575 4.75247 2.8814 5.38022C2.3152 5.36679 1.76061 5.21704 1.2647 4.94368V4.98697C1.2647 6.6826 2.49221 8.09323 4.11684 8.41431C3.81133 8.4957 3.49651 8.53693 3.18033 8.53698C2.95598 8.53737 2.73214 8.51561 2.51206 8.47204C2.96371 9.86101 4.27823 10.8712 5.83535 10.9C4.57007 11.8745 3.01665 12.4011 1.41922 12.3972C1.13568 12.3968 0.852392 12.38 0.570801 12.3467C2.19586 13.3837 4.08487 13.9322 6.01298 13.9269C12.5606 13.9269 16.1377 8.59831 16.1377 3.97681C16.1377 3.82528 16.1338 3.67376 16.1265 3.52584C16.8208 3.03233 17.4215 2.41903 17.9003 1.71476Z" fill="#AB5429"/>
</svg>
