<svg width="23" height="24" viewBox="0 0 23 24" fill="none" xmlns="http://www.w3.org/2000/svg">
<path d="M21.3358 17.7712C20.5344 16.9639 18.5937 15.7856 17.6522 15.3108C16.426 14.6931 16.3251 14.6427 15.3613 15.3587C14.7184 15.8366 14.291 16.2635 13.5386 16.103C12.7863 15.9425 11.1514 15.0378 9.71981 13.6108C8.28826 12.1838 7.33103 10.5014 7.17006 9.75158C7.00909 9.00174 7.44305 8.57938 7.91637 7.93501C8.58345 7.02672 8.53299 6.87534 7.96279 5.64916C7.51823 4.69546 6.30568 2.77293 5.49528 1.97566C4.62838 1.11935 4.62838 1.27073 4.06978 1.50284C3.61502 1.69418 3.17874 1.92677 2.7664 2.19768C1.95903 2.73407 1.51095 3.17964 1.19759 3.84924C0.88423 4.51885 0.743447 6.08867 2.36171 9.02848C3.97996 11.9683 5.11532 13.4715 7.46525 15.8149C9.81518 18.1582 11.6222 19.4182 14.2638 20.8998C17.5316 22.7299 18.785 22.3732 19.4566 22.0603C20.1282 21.7475 20.5758 21.3034 21.1132 20.4961C21.3848 20.0844 21.6179 19.6486 21.8096 19.1942C22.0422 18.6376 22.1936 18.6376 21.3358 17.7712Z" stroke="#211932" stroke-width="2" stroke-miterlimit="10"/>
</svg>
