<svg width="16" height="15" viewBox="0 0 16 15" fill="none" xmlns="http://www.w3.org/2000/svg">
<path d="M4.29588 6.2907C4.2141 6.20535 4.15857 6.0983 4.13591 5.98229C4.11324 5.86628 4.12438 5.7462 4.16802 5.63634C4.21289 5.52543 4.2898 5.4304 4.38894 5.36342C4.48808 5.29643 4.60494 5.26052 4.72459 5.26028H7.28184V0.597066C7.28184 0.437484 7.34523 0.284438 7.45808 0.171597C7.57092 0.0587552 7.72396 -0.00463867 7.88354 -0.00463867C8.04313 -0.00463867 8.19617 0.0587552 8.30901 0.171597C8.42186 0.284438 8.48525 0.437484 8.48525 0.597066V5.26028H11.0425C11.1621 5.26052 11.279 5.29643 11.3781 5.36342C11.4773 5.4304 11.5542 5.52543 11.5991 5.63634C11.6427 5.7462 11.6539 5.86628 11.6312 5.98229C11.6085 6.0983 11.553 6.20535 11.4712 6.2907L8.31226 9.44965C8.19725 9.56086 8.04353 9.62302 7.88354 9.62302C7.72356 9.62302 7.56984 9.56086 7.45483 9.44965L4.29588 6.2907ZM14.5023 8.41923C14.3427 8.41923 14.1897 8.48262 14.0768 8.59546C13.964 8.70831 13.9006 8.86135 13.9006 9.02094V13.2329H1.8665V9.02094C1.8665 8.86135 1.8031 8.70831 1.69026 8.59546C1.57742 8.48262 1.42437 8.41923 1.26479 8.41923C1.10521 8.41923 0.952163 8.48262 0.839321 8.59546C0.72648 8.70831 0.663086 8.86135 0.663086 9.02094V13.2329C0.663086 13.552 0.789873 13.8581 1.01556 14.0838C1.24124 14.3095 1.54733 14.4363 1.8665 14.4363H13.9006C14.2198 14.4363 14.5258 14.3095 14.7515 14.0838C14.9772 13.8581 15.104 13.552 15.104 13.2329V9.02094C15.104 8.86135 15.0406 8.70831 14.9278 8.59546C14.8149 8.48262 14.6619 8.41923 14.5023 8.41923Z" fill="white"/>
</svg>
